<svg width="26" height="26" xmlns="http://www.w3.org/2000/svg">

 <g>
  <title>background</title>
  <rect fill="none" id="canvas_background" height="402" width="582" y="-1" x="-1"/>
 </g>
 <g>
  <title>Layer 1</title>
  <path id="svg_2" fill="#454545" d="m1.75,7.75l6.68036,0c0.33557,1.29523 1.50391,2.25879 2.90265,2.25879s2.56708,-0.96356 2.90265,-2.25879l10.01434,0c0.41406,0 0.75,-0.33594 0.75,-0.75s-0.33594,-0.75 -0.75,-0.75l-10.01434,0c-0.33557,-1.29523 -1.50391,-2.25879 -2.90265,-2.25879s-2.56708,0.96356 -2.90265,2.25879l-6.68036,0c-0.41406,0 -0.75,0.33594 -0.75,0.75s0.33594,0.75 0.75,0.75z"/>
  <path id="svg_3" fill="#454545" d="m24.25,12.25l-1.60614,0c-0.33557,-1.29523 -1.50391,-2.25879 -2.90265,-2.25879s-2.56708,0.96356 -2.90265,2.25879l-15.08856,0c-0.41406,0 -0.75,0.33594 -0.75,0.75s0.33594,0.75 0.75,0.75l15.08856,0c0.33557,1.29523 1.50391,2.25879 2.90265,2.25879s2.56708,-0.96356 2.90265,-2.25879l1.60614,0c0.41406,0 0.75,-0.33594 0.75,-0.75s-0.33594,-0.75 -0.75,-0.75z"/>
  <path id="svg_4" fill="#454545" d="m24.25,18.25l-14.53186,0c-0.33551,-1.29523 -1.50378,-2.25879 -2.90173,-2.25879c-1.39875,0 -2.56708,0.96356 -2.90265,2.25879l-2.16376,0c-0.41406,0 -0.75,0.33594 -0.75,0.75s0.33594,0.75 0.75,0.75l2.16376,0c0.33557,1.29523 1.5039,2.25879 2.90265,2.25879c1.39795,0 2.56622,-0.96356 2.90173,-2.25879l14.53186,0c0.41406,0 0.75,-0.33594 0.75,-0.75s-0.33594,-0.75 -0.75,-0.75z"/>
 </g>
</svg>