<svg width="26" height="26" xmlns="http://www.w3.org/2000/svg"><path fill="none" d="M-1-1h582v402H-1z"/><path fill="#454545" d="M1.75 7.75h6.68c.336 1.295 1.504 2.259 2.903 2.259s2.567-.964 2.903-2.259H24.25a.75.75 0 0 0 0-1.5H14.236c-.336-1.295-1.504-2.259-2.903-2.259S8.766 4.955 8.43 6.25H1.75a.75.75 0 0 0 0 1.5zM24.25 12.25h-1.606c-.336-1.295-1.504-2.259-2.903-2.259s-2.567.964-2.902 2.259H1.75a.75.75 0 0 0 0 1.5h15.089c.335 1.295 1.503 2.259 2.902 2.259s2.567-.964 2.903-2.259h1.606a.75.75 0 0 0 0-1.5zM24.25 18.25H9.718a3.005 3.005 0 0 0-2.902-2.259 3.006 3.006 0 0 0-2.902 2.259H1.75a.75.75 0 0 0 0 1.5h2.164a3.006 3.006 0 0 0 2.902 2.259 3.005 3.005 0 0 0 2.902-2.259H24.25a.75.75 0 0 0 0-1.5z"/></svg>